<svg width="600" height="600" xmlns="http://www.w3.org/2000/svg" xmlns:xlink="http://www.w3.org/1999/xlink">
 <defs>
  <filter id="cq" color-interpolation-filters="sRGB">
   <feGaussianBlur stdDeviation="2.937115"/>
  </filter>
  <filter id="bg" x="-0.056541" y="-0.11485" width="1.1131" height="1.2297" color-interpolation-filters="sRGB">
   <feGaussianBlur stdDeviation="1.037685"/>
  </filter>
  <filter id="bf" x="-0.05288" y="-0.13364" width="1.1058" height="1.2673" color-interpolation-filters="sRGB">
   <feGaussianBlur stdDeviation="1.037685"/>
  </filter>
  <filter id="be" x="-0.61489" y="-0.084422" width="2.2298" height="1.1688" color-interpolation-filters="sRGB">
   <feGaussianBlur stdDeviation="1.037685"/>
  </filter>
  <filter id="cs" x="-0.2107" y="-0.089387" width="1.4214" height="1.1788" color-interpolation-filters="sRGB">
   <feGaussianBlur stdDeviation="0.883393"/>
  </filter>
  <filter id="cr" x="-0.11345" y="-0.081186" width="1.2269" height="1.1624" color-interpolation-filters="sRGB">
   <feGaussianBlur stdDeviation="0.883393"/>
  </filter>
  <filter id="cp" x="-0.2292" y="-0.057108" width="1.4584" height="1.1142" color-interpolation-filters="sRGB">
   <feGaussianBlur stdDeviation="0.883393"/>
  </filter>
  <filter id="ct" x="-0.31129" y="-0.72456" width="1.6226" height="2.4491" color-interpolation-filters="sRGB">
   <feGaussianBlur stdDeviation="25.014401"/>
  </filter>
  <filter id="cu" color-interpolation-filters="sRGB">
   <feGaussianBlur stdDeviation="4.951003"/>
  </filter>
  <filter id="cv" color-interpolation-filters="sRGB">
   <feGaussianBlur stdDeviation="6.601337"/>
  </filter>
  <linearGradient id="bz" x1="-0.606606" x2="2.015203" y1="-1.719924" y2="3.070068">
   <stop stop-color="#FFD8BF" offset="0"/>
   <stop stop-color="#BF7400" offset="0.5393"/>
   <stop offset="1"/>
  </linearGradient>
  <linearGradient id="ca" x1="-0.611775" x2="2.066499" y1="-5.11073" y2="8.854703">
   <stop stop-color="#F3C192" offset="0"/>
   <stop stop-color="#D49035" offset="0.5393"/>
   <stop stop-color="#765735" offset="1"/>
  </linearGradient>
  <linearGradient id="cc" x1="-0.001218" x2="1.001221" y1="0.499974" y2="0.499974" xlink:href="#bi"/>
  <linearGradient id="bi">
   <stop stop-color="#888585" offset="0"/>
   <stop stop-color="#f6f6f6" offset="0.5"/>
   <stop stop-color="#b3b3b3" offset="1"/>
  </linearGradient>
  <linearGradient id="cb" x1="-0.008751" x2="1.008747" y1="0.499951" y2="0.499951" xlink:href="#bi"/>
  <linearGradient id="bq" x1="0.20412" x2="0.340687" y1="0.813249" y2="0.307963" xlink:href="#a"/>
  <linearGradient id="a">
   <stop stop-color="#cfcfcf" offset="0"/>
   <stop stop-color="#5d5d5d" offset="1"/>
  </linearGradient>
  <linearGradient id="br" x1="-0.210399" x2="0.733943" y1="0.465458" y2="0.51144" xlink:href="#a"/>
  <linearGradient id="bn" x1="-0.149896" x2="0.691732" y1="0.154745" y2="0.418637" xlink:href="#a"/>
  <linearGradient id="bp" x1="-3.527346" x2="0.882082" y1="0.472977" y2="0.496066" xlink:href="#a"/>
  <linearGradient id="bo" x1="0.311282" x2="0.821928" y1="0.142184" y2="0.281475" xlink:href="#a"/>
  <linearGradient id="cy" x1="0.563392" x2="0.816951" y1="0.232905" y2="0.472094" xlink:href="#a"/>
  <linearGradient id="ck" x1="-0.090512" x2="1.05251" y1="0.050815" y2="0.369817" xlink:href="#a"/>
  <linearGradient id="cw" x1="-0.488578" x2="0.7512" y1="0.128057" y2="0.81816" xlink:href="#a"/>
  <linearGradient id="bs" x1="-0.148254" x2="0.64273" y1="0.040148" y2="0.331667" xlink:href="#a"/>
  <linearGradient id="cx" x1="0.431465" x2="0.623254" y1="0.183179" y2="0.656419" xlink:href="#bb"/>
  <linearGradient id="bb">
   <stop stop-color="#5d5d5d" offset="0"/>
   <stop stop-color="#292929" offset="1"/>
  </linearGradient>
  <linearGradient id="ci" x1="0.20412" x2="0.340687" y1="0.813277" y2="0.308068" xlink:href="#a"/>
  <linearGradient id="cl" x1="-0.040007" x2="0.996142" y1="-0.035933" y2="0.181129" xlink:href="#a"/>
  <linearGradient id="cd" x1="0.269643" x2="0.412109" y1="0.153733" y2="0.495909" xlink:href="#a"/>
  <linearGradient id="cm" x1="-0.122668" x2="0.279473" y1="0.005964" y2="0.210064" xlink:href="#a"/>
  <linearGradient id="ch" x1="-0.210374" x2="0.73398" y1="0.465475" y2="0.511458" xlink:href="#a"/>
  <radialGradient id="bd" cx="876.84" cy="328.01" r="167.69" gradientTransform="scale(.5471 1.8278)" gradientUnits="userSpaceOnUse" xlink:href="#a"/>
  <linearGradient id="da" x1="0.177669" x2="0.373391" y1="0.30464" y2="0.755846" xlink:href="#bb"/>
  <linearGradient id="bl" x1="0.17291" x2="0.817031" y1="0.32308" y2="0.657827" xlink:href="#a"/>
  <linearGradient id="bm" x1="0.126213" x2="0.721837" y1="0.356137" y2="0.669093" xlink:href="#bb"/>
  <linearGradient id="cz" x1="0.218205" x2="0.520307" y1="0.103643" y2="0.423906" xlink:href="#bb"/>
  <radialGradient id="co" cx="585.98" cy="470.35" r="52.277" gradientTransform="scale(.71901 1.3908)" gradientUnits="userSpaceOnUse" xlink:href="#a"/>
  <linearGradient id="cf" x1="0.208219" x2="0.579534" y1="0.092906" y2="0.619484" xlink:href="#a"/>
  <linearGradient id="cg" x1="-3.527343" x2="0.882082" y1="0.472977" y2="0.496066" xlink:href="#a"/>
  <linearGradient id="ce" x1="-0.044813" x2="0.594196" y1="-0.126911" y2="0.56206" xlink:href="#a"/>
  <linearGradient id="cj" x1="0.311073" x2="0.821718" y1="0.142184" y2="0.281475" xlink:href="#a"/>
  <linearGradient id="bh" x1="-0.392203" x2="0.310101" y1="0.33967" y2="0.754131" xlink:href="#a"/>
  <linearGradient id="bt" x1="-0.251333" x2="0.359256" y1="0.212256" y2="0.606594" xlink:href="#a"/>
  <radialGradient id="bj" cx="974.29" cy="320.05" r="42.668" gradientTransform="scale(.5471 1.8278)" gradientUnits="userSpaceOnUse" xlink:href="#a"/>
  <radialGradient id="bk" cx="889.97" cy="325.7" r="123.73" gradientTransform="scale(.5471 1.8278)" gradientUnits="userSpaceOnUse" xlink:href="#a"/>
  <linearGradient id="bu" x1="-0.305809" x2="0.382258" y1="0.225524" y2="0.610998" xlink:href="#a"/>
  <linearGradient id="by" x1="0.366482" x2="0.55657" y1="0.121744" y2="0.675199" xlink:href="#bc"/>
  <linearGradient id="bc">
   <stop stop-color="#303030" offset="0"/>
   <stop offset="1"/>
  </linearGradient>
  <linearGradient id="bx" x1="0.286778" x2="0.683593" y1="0.091851" y2="0.791351" xlink:href="#bc"/>
  <linearGradient id="bw" x1="0.755563" x2="0.639383" y1="0.056131" y2="0.527568" xlink:href="#bc"/>
  <linearGradient id="bv" x1="0.911934" x2="0.653146" y1="0.256864" y2="0.831398" xlink:href="#bc"/>
  <radialGradient id="cn" cx="-5153.7" cy="987.1" r="155.62" gradientTransform="matrix(1.121 -1.8784e-8 0 .37961 6174.9 535.82)" gradientUnits="userSpaceOnUse">
   <stop stop-opacity="0" offset="0"/>
   <stop stop-opacity="0" offset="0.1"/>
   <stop offset="1"/>
  </radialGradient>
 </defs>
 <g>
  <title>background</title>
  <rect x="-1" y="-1" width="602" height="602" id="canvas_background" fill="none"/>
 </g>
 <g>
  <title>Layer 1</title>
  <path d="m462.46718,475.52271c0,85.77844 -82.24184,116.00573 -155.94655,114.11606c-81.85345,-2.10254 -153.45934,-44.63138 -142.65908,-134.93607c9.29525,-77.76788 70.51168,-166.93727 157.51878,-161.77988c88.72499,5.25448 141.08685,102.44565 141.08685,182.59989" fill="#4d4d4d" id="svg_3"/>
  <path d="m314.46753,296.98513c-84.65435,0 -141.72919,89.25529 -148.03307,165.56296c-7.28234,88.28805 69.69755,124.8379 147.40567,124.8379c-70.49674,0 -146.28158,-31.6016 -142.73751,-113.04798c3.39469,-78.01436 64.48041,-139.53702 143.30889,-139.53702c75.07901,0 132.79992,55.08433 138.98804,129.45752c7.09934,85.43486 -62.73265,123.12748 -139.44365,123.12748c75.03793,0 148.33557,-34.88052 145.01557,-119.55354c-3.05485,-78.02929 -57.3736,-170.84732 -144.50394,-170.84732" fill="#4d4d4d" id="svg_4"/>
  <path d="m205.17648,349.28724c-47.33144,59.27447 -73.31258,167.51612 0.75064,216.9389c60.23798,40.18355 170.33943,41.00515 225.67771,-9.06744c58.38565,-52.83615 33.83858,-153.7133 -8.83964,-208.42417c-58.65454,-75.16864 -158.3105,-73.50678 -217.59244,0.55271m-39.90347,129.89819c0,-83.37341 61.70566,-187.97762 155.77476,-182.514c84.72904,4.92211 135.59335,95.01394 138.49134,171.75108c3.07352,81.46879 -63.85301,117.43232 -137.46061,119.37055c-70.32122,1.85979 -156.80549,-24.49853 -156.80549,-108.60763" fill="#282828" id="svg_5"/>
  <path d="m314.22852,547.01198c-49.99417,0 -110.34419,-7.49521 -146.80068,-45.7256c12.80944,63.7223 80.88247,84.94191 138.14403,86.49921c61.38822,1.67307 136.83695,-16.43941 151.51739,-85.65521c-35.38841,37.62167 -94.03175,44.8816 -142.86074,44.8816" id="svg_6"/>
  <path d="m314.46753,295.36061c79.47455,0 131.85882,80.34096 140.20176,151.89458c9.65003,82.746 -48.10076,127.72095 -126.05909,131.94844c-69.97764,3.78308 -159.6512,-21.8246 -159.6512,-106.35197c0,-77.40562 53.232,-171.38883 138.03573,-177.27071c-84.9419,5.74744 -139.56315,97.75508 -142.68896,175.45573c-3.56274,88.41875 81.62191,119.90832 157.05197,117.96636c78.26083,-2.01291 145.37782,-42.64461 138.87974,-128.35956c-5.8184,-76.66992 -60.46579,-165.28287 -145.76995,-165.28287" fill="#282828" id="svg_7"/>
  <ellipse transform="matrix(1.8672654700000002,0,0,1.8672654700000002,128.94910000000073,32.96244999999996) " cx="100.461001" cy="159.535364" rx="34.245" ry="17.094" fill="#fcd095" stroke="#000" stroke-linejoin="round" stroke-width="2.7185" id="svg_8"/>
  <path d="m430.71974,219.84839c0,62.81108 -54.91254,111.83053 -116.36798,111.83053s-116.36425,-49.01572 -116.36425,-111.83053c0,-62.82975 54.87893,-111.89028 116.36425,-111.89028c61.49278,0 116.36798,49.05307 116.36798,111.89028" fill="#fabb78" id="svg_9" stroke="null"/>
  <path d="m236.3038,177.85359c26.53384,-31.06382 72.81588,-38.74576 110.85208,-28.24799c41.7035,11.50983 62.88203,45.22144 69.18592,86.25646c9.2691,-61.0185 -41.67737,-113.92933 -101.99378,-113.92933c-60.38363,0 -111.233,52.95191 -101.9863,113.98162c3.14821,-20.45029 10.34838,-42.09564 23.94208,-58.06076" fill="#ffe2ae" id="svg_10"/>
  <path d="m426.5296,206.38541c-6.45701,49.68047 -33.72282,87.67185 -85.62906,96.73556c-63.52437,11.10276 -130.15587,-29.54014 -138.72289,-96.72062c-9.35873,68.9357 52.38427,126.20847 119.59835,121.99592c62.11646,-3.89138 112.83139,-58.99065 104.7536,-122.01086" fill="#fabb78" id="svg_11"/>
  <path d="m202.03947,206.6655c-3.03617,6.32629 -1.44899,15.04643 -0.49669,21.59306c-0.57138,-7.18524 -0.40333,-14.44517 0.49669,-21.59306m222.76478,-10.36332c14.57214,63.15465 -32.96097,123.51961 -95.73844,131.40694c-34.34648,4.32458 -69.66394,-6.90515 -94.6965,-30.94059c-22.56404,-21.67895 -28.80817,-50.09873 -39.6159,-77.40562c0,65.2049 56.10759,115.44182 119.58341,115.44182c71.098,0 131.70944,-63.97999 117.52569,-136.31785c0.59752,1.3631 0.50043,2.53201 -0.3025,3.52539c-2.63284,-1.42285 -4.88103,-3.32746 -6.75576,-5.71009m4.27977,-6.48688c0.12697,2.77849 0.12697,2.77849 0,0m-0.11577,-1.93823c0.12697,2.08387 0.12697,2.08387 0,0m-0.09336,-1.13156c0.08589,1.05687 0.02987,0.28009 0,0" fill="url(#bz)" id="svg_12"/>
  <path d="m397.15004,124.15477c19.86397,20.19635 30.87337,37.81213 32.03854,67.73319c-0.05975,-1.77017 -22.40718,-20.9918 -25.81307,-23.76655c-8.36909,-6.82673 -18.01912,7.75288 -26.19027,11.92809c-20.65569,10.56499 -52.05189,18.62037 -74.81012,11.09156c-12.16337,-4.01836 -26.2799,-12.17084 -39.45532,-8.16742c-7.62591,2.32287 -12.50321,8.97781 -15.52445,16.01367c-3.06978,7.13668 -3.51419,35.7656 -8.14874,38.79057c-1.7627,1.13903 -16.71576,-32.78171 -18.70627,-35.80295c-24.24084,-36.70297 -23.65078,27.4264 -20.76399,26.69816c-15.5842,3.88018 -3.40963,-62.01188 -1.10542,-67.18421c10.94591,-24.57695 30.88457,-43.5409 54.99097,-55.07313c43.60438,-20.86109 107.95408,-18.64651 143.48814,17.73902" fill="#c48e53" id="svg_13"/>
  <path d="m190.85455,199.92467c0.28756,6.66987 4.24243,14.06425 4.24243,20.2561c-0.844,-1.9793 3.77188,9.17574 4.72045,8.45871c1.52742,-10.15792 -6.92756,-18.80336 -8.96288,-28.71481m205.52991,-45.02724c-2.69259,0 -11.8646,10.12432 -14.6543,11.8534c-8.15994,5.04909 -17.23486,8.57075 -26.46288,11.12891c-24.45371,6.77817 -43.88821,4.12665 -68.08424,0.13444c-14.0381,-2.30794 -26.23507,-10.72184 -36.52744,2.96148c-3.96607,5.26942 -14.10533,46.87957 -13.00364,46.87957c-5.26942,0 -14.95306,-30.47377 -17.76143,-35.00376c-3.32,-5.37026 -13.46298,-13.4107 -19.87144,-8.3168c-6.62506,5.25822 -3.25651,19.41956 -2.20337,26.27242c-2.80463,-14.91198 6.34497,-21.003 18.74361,-13.26505c4.85863,4.65323 18.01164,40.87444 22.47814,40.32173c1.53489,-0.35478 7.35703,-37.68142 10.49777,-43.21973c4.35446,-7.70433 11.33803,-12.63765 20.32705,-12.63765c15.39374,0.52657 28.71107,11.45754 43.93302,11.45754c19.3262,0 39.13415,-2.92414 57.03002,-10.46415c5.96778,-2.51708 22.13083,-18.06766 26.78779,-18.06766c12.19698,-2.37143 20.20382,27.65046 31.14973,27.65046c1.71415,0 -1.12783,-16.36098 -1.32203,-17.45146c1.54236,2.84945 1.56477,5.32918 0.07843,7.44292c-11.58825,-0.00374 -18.12741,-27.67661 -31.13479,-27.67661" fill="#ab4c0c" id="svg_14"/>
  <path d="m381.19986,156.57797c0,35.65357 -130.79821,32.43814 -130.79821,2.3789c24.03544,5.25448 50.62904,9.62015 75.20598,7.08067c6.38232,-0.66848 55.59223,-18.29547 55.59223,-9.45957" fill="#d8ac77" id="svg_15"/>
  <path d="m205.34453,193.29588c-1.97183,0 -3.12206,11.9617 -3.30506,13.36215c-0.3361,0.7133 0.13071,-0.33237 0.13071,-0.26888c2.1735,-4.21256 6.62506,-4.20135 10.56873,-2.76729c1.43779,-7.72301 1.54983,-10.32598 -7.39437,-10.32598m183.2609,-20.41295c-13.62731,10.53885 -31.14226,15.79707 -47.9215,18.48593c-24.56948,3.95487 -37.86815,-2.33408 -61.15295,-8.04418c-30.93312,-7.58857 -37.37892,26.49276 -39.15282,50.27052c0.55645,2.28554 0.06349,3.70839 -1.48634,4.28351c-8.18983,-9.80314 -10.84508,-23.57983 -17.51122,-34.57429c-1.2436,3.02124 15.61034,43.97037 20.33826,43.97037c8.63797,0 0.63113,-62.83722 38.58517,-55.02458c23.31841,4.78767 37.77478,12.48827 62.54966,8.6193c18.19837,-2.84945 37.86441,-8.68279 51.85023,-21.26816c-1.90461,-2.35649 -3.93246,-4.59347 -6.09849,-6.71842m11.28202,-7.18524c7.9172,11.226 15.28917,20.62208 24.92052,30.59702c-2.73368,-11.86461 -14.00822,-24.65164 -24.92052,-30.59702" fill="#f2bd7e" id="svg_16"/>
  <path d="m214.41944,196.30218c-3.06978,11.36044 -2.59549,4.77646 5.40387,10.99072c2.09881,-5.6242 -0.49669,-8.27945 -5.40387,-10.99072m183.18995,-31.35886c-2.45732,0 -7.1815,6.54663 -8.99275,7.94708c2.16603,2.12495 4.19388,4.36193 6.09102,6.72216c6.15077,-5.52711 6.08728,-6.8678 13.00737,-0.75064c-1.58718,-3.21917 -5.48229,-13.9186 -10.10564,-13.9186" fill="#f3c58a" id="svg_17"/>
  <path d="m201.55399,228.25109c0.40332,3.21917 0.80292,6.43833 1.20998,9.65376c-0.14938,-3.24157 -0.55644,-6.46074 -1.20998,-9.65376m0.62366,-21.87315" fill="#f1b26f" id="svg_18"/>
  <path d="m204.6163,193.33322c-7.94708,0.7245 -7.15536,12.58911 -6.74083,17.90708c-0.0112,-0.07469 2.82704,16.82406 1.94569,17.40291c-1.47514,-2.73741 -3.46191,-5.34037 -4.70924,-8.41016c0.46682,2.12495 4.15653,17.89587 7.46159,17.89587c-5.47482,0 0.91123,-40.4599 2.04279,-44.7957m224.27726,-6.59518c0.12324,1.71789 0.22033,3.42457 0.29129,5.14245c0.07096,0.44441 -0.07843,0.67595 -0.43321,0.70209c-2.53201,-1.3519 -4.70177,-3.17061 -6.49808,-5.46735c1.04567,3.17062 2.898,14.88584 9.31765,14.88584c1.91208,0.00373 -2.40503,-14.37794 -2.67765,-15.26303" fill="url(#ca)" id="svg_19"/>
  <path d="m239.40346,237.64343c-0.14938,0.16059 -0.31744,0.24648 -0.51537,0.24648c0.17179,-0.08589 0.34358,-0.17552 0.51537,-0.24648m-39.94081,-9.11599c0.09336,0.05229 0.18299,0.10084 0.27635,0.14939c-0.09336,-0.04855 -0.18299,-0.0971 -0.27635,-0.14939m-2.4984,-4.19761c0.24648,0.46682 0.49296,0.94484 0.7357,1.41165c-0.24648,-0.46681 -0.49296,-0.94483 -0.7357,-1.41165m-0.7133,-1.4602c0.3996,0.80666 0.3996,0.80666 0,0m-0.69462,-1.54983c0.52283,1.16891 0.52283,1.16891 0,0m-0.45561,-1.11663c0,0.04855 0.73196,1.85233 0,0m10.24381,-26.89982c-1.37057,0.44067 -2.72994,0.88508 -4.10425,1.32576c6.00513,-2.81211 16.85021,3.89138 15.30411,2.92413c-3.37601,-2.41997 -7.11054,-3.84283 -11.19986,-4.24989m223.67974,-0.79546c-0.09337,0.02241 -0.18673,0.05975 -0.27636,0.0859c0.08963,-0.02615 0.18299,-0.06349 0.27636,-0.0859m0.04108,-3.06231c0.02614,0.49296 0.02614,0.49296 0,0m-0.13818,-2.19591c0.05228,0.83654 0.05228,0.83654 0,0m-158.38146,-5.23207c6.25161,0.44067 12.29408,1.81498 18.12368,4.13786c-5.82213,-2.0764 -11.89075,-3.96608 -18.12368,-4.13786m-0.69836,0c-0.89255,0 -0.89255,0 0,0m144.50394,-3.25652c1.57598,1.68428 3.16315,3.36482 4.74286,5.04909c-1.57971,-1.68427 -3.15568,-3.36481 -4.74286,-5.04909m11.77498,-10.06829c1.3519,5.75865 2.25566,11.58078 2.715,17.4776c-0.27262,-3.41709 -1.40418,-14.05304 -2.715,-17.4776m-28.52808,-3.74947c-1.16891,0.33237 -1.16891,0.33237 0,0" fill="#d69c5d" id="svg_20"/>
  <path d="m199.81743,228.64321c-0.10457,0.03735 -0.10457,0.03735 0,0m-4.72045,-8.45871c0,1.94943 3.37228,7.41678 4.36567,8.33548c-1.79631,-2.59177 -3.25651,-5.36279 -4.36567,-8.33548m3.56648,-1.80751c0,-3.71212 1.55356,9.9712 1.15397,10.26622c0.07469,-3.4619 -0.3137,-6.8902 -1.15397,-10.26622m19.42703,-19.53907c3.89138,5.03415 15.55432,39.04452 20.7976,39.04452c-10.199,-10.47909 -10.37826,-28.34882 -20.7976,-39.04452m-1.54236,-1.29214m-15.30411,-2.92041c-4.23122,3.37602 -4.16774,12.0364 -3.37228,16.61867c-0.38092,-4.81755 -1.07555,-13.03352 3.37228,-16.61867m227.9371,-2.74114c-0.20914,0.81039 -0.20914,0.81039 0,0m-10.08697,-8.08153c1.73282,2.13615 6.63253,8.78362 9.65376,8.78362c-3.71586,-2.34902 -6.93502,-5.28063 -9.65376,-8.78362m-149.91901,-1.79257c-8.72013,0.2054 -15.43855,5.17979 -19.65857,12.63765c-3.14074,5.53457 -8.95914,42.86495 -10.49777,43.21973c1.40045,-0.73571 1.84859,-2.1623 1.3519,-4.27231c1.25107,-17.74649 4.70925,-51.02116 28.80444,-51.58507m0.67221,0c1.42286,-0.01494 2.84198,0.08589 4.25364,0.28009c-1.41913,-0.0971 -2.83451,-0.1942 -4.25364,-0.28009m126.87322,-16.8278c-16.3199,10.88242 -27.7625,20.30465 -48.04847,24.68525c-27.77371,6.00513 -44.05253,-0.90749 -70.23532,-6.80431c23.3931,5.28436 37.25568,12.28287 62.00068,8.3392c23.72921,-3.76814 37.37145,-13.61983 56.28312,-26.22014m0.88134,-0.24648c-0.00373,0 -0.00373,0 0,0c7.07321,2.81211 12.14843,9.10479 17.36184,14.47131c-3.35361,-3.45071 -11.4202,-14.47131 -17.36184,-14.47131" fill="#2e3436" id="svg_21"/>
  <path d="m193.95421,209.76516c0,-69.85813 68.78633,-116.79745 134.4842,-109.22756c71.67685,8.26452 127.08235,81.25966 95.35004,151.48004c43.19732,-77.70065 -29.29366,-165.19697 -110.65041,-165.19697c-81.36423,0 -153.0859,87.76894 -110.02302,165.20818c-5.99019,-13.25385 -9.1608,-27.70649 -9.1608,-42.26369" fill="#ab4c0c" id="svg_22"/>
  <g transform="matrix(0.417376335566306,0,0,0.4121398364411612,116.91801625879489,404.21252869889963) " stroke="#000" stroke-linejoin="round" id="svg_26">
   <path d="m876.90069,164.08481c19.98,18.6 59.43,19.6 79.4,38.2l-55.8,27.71l-85.02,-36.7l61.42,-29.21z" fill="url(#bq)" fill-rule="evenodd" stroke-linecap="round" stroke-width="5.5188" id="svg_27"/>
   <path d="m730.32069,-2.61519l31.46,6.56l5.25,48.68l33.7,7.5l5.25,-50.19l31.46,5.99l-8.24,169.28c19.97,18.61 60.54,21.48 80.52,40.08l2.62,53.93l-245.68,-59.92l-2.25,-37.46c12.73,-10.11 38.57,-5.99 62.92,-22.47l2.99,-161.98z" fill="url(#br)" fill-rule="evenodd" stroke-linecap="round" stroke-width="5.5188" id="svg_28"/>
   <path d="m897.68069,249.27481l0.13,23.2l-285.7,150.7l-0.9,-24.33l286.47,-149.57z" fill="url(#bn)" fill-rule="evenodd" stroke-width="5.5188" id="svg_29"/>
   <path d="m829.24069,184.57481l8.52,-166.63l33.9,-16.95l4.73,163.47l-47.15,20.11z" fill="url(#bp)" fill-rule="evenodd" stroke-width="5.5188" id="svg_30"/>
   <path d="m956.48069,202.94481l1.18,49.68l-45.24,26.76l-2.49,-53.99l46.55,-22.45z" fill="url(#bo)" fill-rule="evenodd" stroke-width="5.5188" id="svg_31"/>
   <path d="m356.84769,113.08481l262.81,49.48l344.45,-146.6l-286.31,-46.33l-320.95,143.45z" fill="url(#cy)" fill-rule="evenodd" stroke-linecap="round" stroke-width="5.5188" id="svg_32"/>
   <path d="m318.12469,359.96481l47.933,-22.77c6.091,-4.86 21.983,-6.27 34.693,-10.07l-52.701,47.14l-29.925,-14.3z" fill="url(#ck)" fill-rule="evenodd" stroke-linecap="round" stroke-width="5.5188" id="svg_33"/>
   <path d="m355.71369,113.44481c8.988,81.65 20.224,133.33 41.947,198.5c29.3,87.91 158.39,105.59 183.93,39.44c18.48,-47.85 33.21,-74.74 36.7,-189.26l-262.58,-48.68l0.003,0z" fill="url(#cw)" fill-rule="evenodd" stroke-linecap="round" stroke-width="5.5188" id="svg_34"/>
   <path d="m863.29069,242.59481l33.46,6.35l-288.7,151.07l-16.25,-15.71l271.49,-141.71z" fill="url(#bs)" fill-rule="evenodd" stroke-width="5.5188" id="svg_35"/>
   <path d="m619.66069,161.06481l-57.33,217.16l326.42,-160.45c59.7,-33.16 68.46,-130.75 75.73,-202.87l-344.82,146.16z" fill="url(#cx)" fill-rule="evenodd" stroke-linecap="round" stroke-width="5.5188" id="svg_36"/>
   <path d="m530.99069,343.49481c19.97,18.6 59.42,19.6 79.4,38.2l-55.81,27.72l-85.01,-36.7l61.42,-29.22z" fill="url(#ci)" fill-rule="evenodd" stroke-linecap="round" stroke-width="5.5188" id="svg_37"/>
   <path d="m450.62069,168.45481l5.46,49.18l-33.78,15l-6.7,-49.39l35.02,-14.79z" fill="url(#cl)" fill-rule="evenodd" stroke-width="5.5188" id="svg_38"/>
   <path d="m434.53069,183.45481l34.48,-13.36c22.21,11.99 -1.05,37.27 -1.31,54.32l-31.67,13.35l-1.5,-54.31z" fill="url(#cd)" fill-rule="evenodd" stroke-linecap="round" stroke-width="5.5188" id="svg_39"/>
   <path d="m463.63069,221.08481l-8.89,18.56l-26.83,-5.29l35.72,-13.27z" fill="url(#cm)" fill-rule="evenodd" stroke-width="5.5188" id="svg_40"/>
   <path d="m384.40869,176.80481l31.462,6.55l5.24,48.69l33.71,7.49l5.24,-50.18l31.46,5.99l-8.24,169.28c19.98,18.6 60.55,21.47 80.52,40.07l2.62,53.93l-245.68,-59.92l-2.247,-37.45c12.734,-10.11 38.576,-5.99 62.919,-22.47l2.996,-161.98z" fill="url(#ch)" fill-rule="evenodd" stroke-linecap="round" stroke-width="5.5188" id="svg_41"/>
   <ellipse transform="matrix(1.6102,0.23804,-0.17008,1.1505,-220.1,-430.18) " cx="717.730924" cy="475.657154" rx="16.796" ry="59.04" fill="url(#bd)" stroke-linecap="round" stroke-width="4.0111" id="svg_42"/>
   <path d="m408.59069,361.64481l-28.855,20.57l41.145,11.37l22.47,-23.96l-34.76,-7.98z" fill="none" stroke-linecap="round" stroke-width="3.6792" id="svg_43"/>
   <path d="m395.59069,379.12481l22.74,5.8l11.8,-11.16l-19.9,-5.25l-14.64,10.61z" fill="url(#da)" fill-rule="evenodd" stroke-linecap="round" stroke-width="3.6792" id="svg_44"/>
   <path d="m379.55369,382.26481l-0.571,14.79l41.728,11.01l0.08,-14.73l-41.237,-11.07z" fill="url(#bl)" fill-rule="evenodd" stroke-linecap="round" stroke-width="3.6792" id="svg_45"/>
   <path d="m420.88069,393.51481l0.01,14.52l22.18,-26.77l0.37,-11.54l-22.56,23.79z" fill="url(#bm)" fill-rule="evenodd" stroke-linecap="round" stroke-width="3.6792" id="svg_46"/>
   <path d="m394.39069,109.50481l222.37,39.74l307.74,-129.37l-243.61,-38.1l-286.5,127.73z" fill="url(#cz)" fill-rule="evenodd" stroke-linecap="round" stroke-width="5.5188" id="svg_47"/>
   <ellipse transform="matrix(0.61835,0,0,0.40372,-121.18,68.358) " cx="899.385054" cy="353.090801" rx="32.065" ry="67.183" fill="url(#co)" stroke-linecap="round" stroke-width="11.046" id="svg_48"/>
   <path d="m494.81069,174.74481l31.15,5.49l-34.05,14.73l-31.59,-6.49l34.49,-13.73z" fill="url(#cf)" fill-rule="evenodd" stroke-width="5.5188" id="svg_49"/>
   <path d="m483.33069,363.99481l8.52,-166.63l33.9,-16.95l4.73,163.47l-47.15,20.11z" fill="url(#cg)" fill-rule="evenodd" stroke-width="5.5188" id="svg_50"/>
   <path d="m418.99069,162.51481l31.15,5.49l-34.05,14.73l-31.588,-6.49l34.488,-13.73z" fill="url(#ce)" fill-rule="evenodd" stroke-width="5.5188" id="svg_51"/>
   <path d="m610.56069,382.35481l1.19,49.68l-45.25,26.76l-2.48,-53.98l46.54,-22.46z" fill="url(#cj)" fill-rule="evenodd" stroke-width="5.5188" id="svg_52"/>
   <path d="m410.02069,369.90481l0.28,11.04" fill="none" stroke-linecap="round" stroke-width="3.6792" id="svg_53"/>
   <ellipse transform="matrix(1.6102,0.23804,-0.17008,1.1505,-212.87,-428.74) " cx="717.730924" cy="475.657154" rx="16.796" ry="59.04" fill="url(#bh)" stroke-linecap="round" stroke-width="4.0111" id="svg_54"/>
   <path d="m882.81069,253.89481l-12.12,-2.55c-22.8,2.31 -27.36,75.84 -12.36,81.08l14.06,4.73l10.42,-83.26z" fill="url(#bt)" fill-rule="evenodd" stroke-linecap="round" stroke-width="5.5188" id="svg_55"/>
   <ellipse transform="matrix(0.98773,0.14602,-0.10433,0.70575,110.58,-91.416) " cx="818.822749" cy="378.443104" rx="16.796" ry="59.04" fill="url(#bj)" stroke-linecap="round" stroke-width="6.539" id="svg_56"/>
   <ellipse transform="matrix(0.32477,0.048012,-0.034305,0.23205,438.23,263.1) " cx="1352.630761" cy="-134.913649" rx="16.796" ry="59.04" fill="url(#bd)" stroke-linecap="round" stroke-width="19.887" id="svg_57"/>
   <ellipse transform="matrix(0.32477,0.048012,-0.034305,0.23205,441.64,263.34) " cx="1352.630761" cy="-134.913649" rx="16.796" ry="59.04" fill="url(#bk)" stroke-linecap="round" stroke-width="19.887" id="svg_58"/>
   <ellipse transform="matrix(1.8576,0.20159,-0.14404,1.3273,-558.26,-430.21) " cx="700.665339" cy="503.202472" rx="16.796" ry="59.04" fill="url(#bd)" stroke-linecap="round" stroke-width="3.4942" id="svg_59"/>
   <ellipse transform="matrix(1.8576,0.20159,-0.14404,1.3273,-549.91,-428.88) " cx="700.665339" cy="503.202472" rx="16.796" ry="59.04" fill="url(#bh)" stroke-linecap="round" stroke-width="3.4942" id="svg_60"/>
   <path d="m701.55069,338.63481l-14.01,-2.38c-26.06,3.66 -28.03,88.2 -10.59,93.56l16.35,4.8l8.25,-95.98z" fill="url(#bu)" fill-rule="evenodd" stroke-linecap="round" stroke-width="5.5188" id="svg_61"/>
   <ellipse transform="matrix(1.1395,0.12366,-0.088355,0.81418,-163.91,-56.3) " cx="791.000081" cy="423.34152" rx="16.796" ry="59.04" fill="url(#bj)" stroke-linecap="round" stroke-width="5.6963" id="svg_62"/>
   <ellipse transform="matrix(0.37467,0.040659,-0.029052,0.2677,227.66,335.82) " cx="1268.019546" cy="1.636395" rx="16.796" ry="59.04" fill="url(#bd)" stroke-linecap="round" stroke-width="17.324" id="svg_63"/>
   <ellipse transform="matrix(0.37467,0.040659,-0.029052,0.2677,231.58,335.95) " cx="1268.019546" cy="1.636395" rx="16.796" ry="59.04" fill="url(#bk)" stroke-linecap="round" stroke-width="17.324" id="svg_64"/>
   <path d="m509.33069,114.20481c5.21,-12.88 -10.1,-8.6 5.74,-26.77c15.85,-18.17 23.65,-51.37 43.3,-69.33s47.97,19.58 64.59,7.32c16.62,-12.27 9.9,-35.14 54.8,-59.52c23.36,-12.685 85.09,44.85 117.58,87.92c-53.32,8.48 -232.69,51.91 -286.01,60.38z" fill="url(#by)" stroke-linecap="round" stroke-width="5.5188" id="svg_65"/>
   <path d="m618.96069,141.22481c42.02,-50.85 145.11,-154.6 181.67,-162.61c23.12,-5.06 47.5,25.78 72.04,61.97c-55.44,22.07 -194.03,87.57 -253.71,100.64z" fill="url(#bx)" stroke-linecap="round" stroke-width="5.5188" id="svg_66"/>
   <path d="m538.46069,129.56481c29.31,-32.83 67.33,-112.19 94.81,-109.63c29.36,2.73 41.84,54.02 69.38,92.16c-89.16,38.66 -85.63,35.48 -164.19,17.47z" fill="url(#bw)" stroke-linecap="round" stroke-width="5.5188" id="svg_67"/>
   <path d="m457.95069,119.50481c21.19,-21.19 48.28,-61.45 72.56,-60.38c39.98,1.76 81.39,50.14 124.47,74.15l-36.81,15.89l-160.22,-29.66z" fill="url(#bv)" stroke-linecap="round" stroke-width="5.5188" id="svg_68"/>
  </g>
  <g transform="matrix(-0.6126777999999999,0.081091164,-0.0141860061,0.5997728099999999,91.42979999999989,30.117580000000174) " id="svg_69">
   <g id="svg_70">
    <path d="m-336.76071,6.21988c-30.971,-0.10749 -59.728,10.727 -82.75,28.969c-30.458,18.833 -53.038,48.528 -61.515,83.206c-6.7495,19.591 -10.148,37.304 -11.73,52.624c-4.5001,2.9523 -10.253,7.0424 -13.849,10.326c-11.76,10.741 -52.969,51.39 -52.969,64.594c0,17.713 36.177,40.719 52.156,52.969c20.989,16.09 27.272,18.844 72.531,18.844c36.149,0 123.33,-32.711 148.66,-44c22.866,-9.8746 52.717,-25.366 70.073,-38.641c16.311,-11.654 25.833,-25.687 25.833,-40.796c0,-12.761 -6.8153,-24.742 -18.75,-35.188c0.74325,-5.3013 1.2056,-10.684 1.3438,-16.156c1.9013,-75.284 -55.86,-136.5 -129.03,-136.75l-0.0038,-0.001z" fill="#fc0" stroke="#000" stroke-width="6.8123" id="svg_71"/>
    <path d="m-336.76071,6.21988c-30.971,-0.10749 -59.728,10.727 -82.75,28.969c-30.458,18.833 -53.024,48.541 -61.5,83.219c-6.7495,19.591 -10.167,37.305 -11.75,52.625c0,72.295 96.13,91.133 140.34,92c64.85,0.44 143.35,-45.43 143.35,-103.91c0.74325,-5.3013 1.2056,-10.684 1.3438,-16.156c1.9013,-75.284 -55.86,-136.5 -129.03,-136.75l-0.0038,0.003z" fill="#fc0" stroke="#000" stroke-width="6.8123" id="svg_72"/>
    <path d="m-207.72071,135.96988c-0.14017,5.3216 -0.6034,10.58 -1.3438,15.75c0.26414,0.21965 0.52214,0.43503 0.78125,0.65625c0.2882,-3.1054 0.48261,-6.2429 0.5625,-9.4062c0.0594,-2.3526 0.0558,-4.6763 0,-7l0.00005,-0.00005z" fill="#ffff04" opacity="0.55133" id="svg_73"/>
    <path d="m-206.88855,166.15988c-13.43031,52.35 -73.92061,92.1 -145.49998,92.1c-70.04434,0 -127.57331,-38.063 -140.20036,-88.75c-1.5365,4.3149 -2.41285,8.7548 -2.57145,13.281c-1.50682,43.003 62.41228,77.844 142.7767,77.844s146.75388,-34.84 148.25267,-77.844c0.19972,-5.6998 -0.76995,-11.274 -2.75513,-16.625l-0.00245,-0.006z" fill="url(#cn)" filter="url(#cq)" opacity="0.2" id="svg_74"/>
    <path d="m-336.76071,6.21988c-30.971,-0.10749 -59.728,10.727 -82.75,28.969c-4.6439,2.8715 -9.0881,6.0193 -13.344,9.375c-27.26,25.82 -44.991,62.399 -46.406,102.97c-0.10791,3.0927 -0.1133,6.1754 -0.0312,9.2188c0.0341,-0.35629 0.0885,-0.70561 0.125,-1.0625c8.3081,-81.13 76.179,-146.91 151.59,-146.91c10.468,0 20.517,1.2865 30.062,3.6875c-12.344,-4.0247 -25.53,-6.2024 -39.25,-6.25l0.0042,0.0022z" id="svg_75"/>
    <path d="m-301.72071,11.18988c-54.347,11.452 -100.47,71.166 -110.34,150.25c-2.685,21.512 -2.4576,42.63 0.28125,62.594c-0.84526,-16.068 -0.18114,-32.684 2.1562,-49.562c12.11,-87.446 65.143,-152.02 124.31,-157.31c-5.2816,-2.349 -10.775,-4.3469 -16.406,-5.9688l-0.00145,-0.0032z" id="svg_76"/>
    <path d="m-407.39071,247.83988l44.047,5.4212l0,16.263l-44.05,-5.42l0.003,-16.2642z" fill="#d4aa00" filter="url(#bg)" id="svg_77"/>
    <path d="m-407.39071,247.83988l44.047,5.4212l3.0494,-13.214l-44.047,-5.4212l-3.0494,13.214z" fill="#ffd42a" filter="url(#bf)" id="svg_78"/>
    <path d="m-359.28071,262.07988l-4.0502,7.457l0,-16.281l3.0312,-13.219l1.019,22.043z" fill="#ffd42a" filter="url(#be)" id="svg_79"/>
    <path d="m-246.00575,219.89928l-37.04416,17.58342l2.13078,16.12281l37.04688,-17.58306l-2.1335,-16.12317z" fill="#d4aa00" filter="url(#bg)" id="svg_80"/>
    <path d="m-246.00575,219.89928l-37.04416,17.58342l-4.34506,-12.25486l37.04416,-17.58342l4.34506,12.25486z" fill="#ffd42a" filter="url(#bf)" id="svg_81"/>
    <path d="m-285.37703,247.35166l4.4486,6.27009l-2.13314,-16.14066l-4.33011,-12.26486l2.01465,22.13543z" fill="#ffd42a" filter="url(#be)" id="svg_82"/>
    <path d="m-486.59272,206.81854l15.34958,-7.83078l-0.73098,17.22717l-14.61932,8.61381l0.00072,-18.0102z" fill="#f5ca1f" filter="url(#cs)" id="svg_83"/>
    <path d="m-486.59272,206.81854l15.34958,-7.83078l-14.61933,-20.62097l-13.88845,6.00358l13.1582,22.44817z" fill="#e4ba10" filter="url(#cr)" id="svg_84"/>
    <path d="m-499.75779,184.37484l13.15744,22.43716l0,18.01053l-14.11149,-23.6269l0.95405,-16.82079z" fill="#dab20d" filter="url(#cp)" id="svg_85"/>
   </g>
   <path d="m-539.10171,158.82989c21.162,-9.6992 42.577,-18.122 64.359,-24.717c41.545,-4.62 78.276,37.616 49.201,85.579c-15.481,16.024 -34.762,27.613 -53.867,39.407l-59.693,-100.27" fill="#f00" id="svg_86"/>
   <path d="m-433.40064,151.31329l-57.77593,26.4108" fill="none" filter="url(#ct)" opacity="0.52869" stroke="#fff" stroke-linecap="round" stroke-linejoin="round" stroke-width="55" id="svg_87"/>
   <ellipse transform="matrix(0.15143,-0.21173,0.19065,0.27394,-76.421,88.494) " cx="-1734.251069" cy="-897.845262" rx="116.43" ry="171.79" fill="#1a1a1a" id="svg_88"/>
   <ellipse transform="matrix(0.080826,-0.19773,0.16454,0.21978,-47.947,117.16) " cx="-2315.708871" cy="-1664.771936" rx="116.43" ry="171.79" fill="#fff" filter="url(#cu)" opacity="0.83197" id="svg_89"/>
   <ellipse transform="matrix(0.080826,-0.19773,0.16454,0.21978,-46.295,115.52) " cx="-2315.708871" cy="-1664.771936" rx="116.43" ry="171.79" fill="#ff0" filter="url(#cv)" opacity="0.79918" id="svg_90"/>
   <path d="m-488.70571,138.06989c-3.5385,1.2235 -7.0689,2.4936 -10.59,3.8053c36.277,8.221 63.167,67.914 49.613,98.347c4.0096,-2.7744 7.9419,-5.6328 11.743,-8.6513c9.0326,-39.816 -14.65,-84.646 -50.765,-93.502l-0.001,0.001z" fill="#2b0000" opacity="0.22541" stroke="#fff" stroke-linecap="round" stroke-linejoin="round" stroke-width="0.97939" id="svg_91"/>
   <path d="m-531.21971,156.92989c-4.6348,0.0747 -8.6013,2.0219 -11.453,6.0513c-1.4778,2.088 -2.5654,4.6142 -3.2911,7.4852c9.4234,-12.701 31.126,-3.259 48.539,21.154c17.449,24.461 23.976,54.686 14.583,67.5c-1.0036,1.3692 -2.1461,2.4762 -3.4119,3.3459c3.2402,-0.75694 6.0347,-2.6164 8.1923,-5.6648c9.6059,-13.572 2.9289,-45.578 -14.915,-71.486c-12.547,-18.217 -27.267,-28.562 -38.245,-28.385l0.0017,-0.0006z" fill="#1a1a1a" id="svg_92"/>
  </g>
  <text fill="#000000" stroke="null" stroke-width="0" stroke-opacity="null" x="346.572388" y="425.154026" id="svg_94" font-size="24" font-family="Helvetica, Arial, sans-serif" text-anchor="start" xml:space="preserve"/>
  <path stroke="null" transform="rotate(-3 291.99999999999903,247.2860107421885) " id="svg_98" d="m292,239.20547c-13.0929,0 -23.42355,8.08003 -23.42355,8.08003s10.33065,8.08109 23.42355,8.08109c10.01313,0 23.42355,-8.08109 23.42355,-8.08109s-13.41042,-8.08003 -23.42355,-8.08003zm0,13.11513c-4.59622,0 -8.34052,-2.25935 -8.34052,-5.0351s3.7443,-5.03509 8.34052,-5.03509s8.34052,2.2604 8.34052,5.03509s-3.7443,5.0351 -8.34052,5.0351zm0,-7.97424c-2.68764,0 -4.86863,1.31559 -4.86863,2.93914c0,1.62355 2.17926,2.93915 4.86863,2.93915c2.68937,0 4.86863,-1.3156 4.86863,-2.93915c0,-1.6225 -2.17926,-2.93914 -4.86863,-2.93914z" stroke-opacity="null" stroke-width="null" fill="#4c4c4c"/>
  <path stroke="null" transform="rotate(-9 372.5000000000003,237.28602600097662) " id="svg_100" d="m372.5,229.967c-12.82619,0 -22.94641,7.31855 -22.94641,7.31855s10.12022,7.31951 22.94641,7.31951c9.80917,0 22.94641,-7.31951 22.94641,-7.31951s-13.13724,-7.31855 -22.94641,-7.31855zm0,11.87913c-4.5026,0 -8.17062,-2.04642 -8.17062,-4.56058s3.66802,-4.56058 8.17062,-4.56058s8.17062,2.04738 8.17062,4.56058s-3.66803,4.56058 -8.17062,4.56058zm0,-7.22273c-2.63289,0 -4.76946,1.19161 -4.76946,2.66215c0,1.47054 2.13487,2.66216 4.76946,2.66216c2.63459,0 4.76946,-1.19162 4.76946,-2.66216c0,-1.46959 -2.13487,-2.66215 -4.76946,-2.66215z" stroke-opacity="null" stroke-width="null" fill="#4c4c4c"/>
  <path stroke="null" d="m262.57239,237.15402c0,0 0.186,0.30745 2,-1c1.14728,-0.8269 2,-2 3,-3c1,-1 2,-1 3,-2c1,-1 2.29291,-1.29289 3,-2c0.70709,-0.70711 1,-1 1,-1c1,0 1,-1 1,-1c0,0 1.29291,0.70711 2,0c0.70709,-0.70711 1.07611,-0.61731 2,-1c1.30655,-0.5412 2.15225,-0.23463 4,-1c1.30655,-0.5412 2,-1 4,-2c0,0 1,0 1,0c1,0 2,0 2,0c1,0 1,0 1,0c1,0 2,0 2,0c1,-1 3,-1 3,-1c1,0 1,0 2,0c0,0 0,0 1,0c0,0 0,0 0,0c1,0 1,0 2,0c0,0 1,0 1,0c0,0 1,0 1,0c1,0 1,0 2,1c0,0 0,0 0,0c0,0 1,0 1,1c0,0 0,0 1,0c0,0 0,0 1,1c0,0 0,0 1,0c0,0 -0.70709,0.29289 0,1c0.70709,0.70711 1,0 1,0c0,0 0,0 1,0c0,0 0,0 0,0l0,0" id="svg_101" stroke-opacity="null" stroke-width="null" fill="#000000"/>
  <path stroke="null" d="m345.57239,220.16029c0,0 0.19359,0.24609 2.08163,-0.80041c1.19411,-0.66187 2.08164,-1.60084 3.12245,-2.40126c1.04082,-0.80042 2.08164,-0.80042 3.12245,-1.60084c1.04082,-0.80041 2.3865,-1.03485 3.12245,-1.60083c0.73595,-0.56599 1.04082,-0.80042 1.04082,-0.80042c1.04081,0 1.04081,-0.80042 1.04081,-0.80042c0,0 1.34568,0.56599 2.08164,0c0.73595,-0.56598 1.12003,-0.4941 2.08163,-0.80042c1.35988,-0.43318 2.2401,-0.1878 4.16326,-0.80041c1.35988,-0.43319 2.08164,-0.80042 4.16327,-1.60084c0,0 1.04081,0 1.04081,0c1.04082,0 2.08164,0 2.08164,0c1.04081,0 1.04081,0 1.04081,0c1.04082,0 2.08164,0 2.08164,0c1.04081,-0.80042 3.12245,-0.80042 3.12245,-0.80042c1.04081,0 1.04081,0 2.08163,0c0,0 0,0 1.04081,0c0,0 0,0 0,0c1.04082,0 1.04082,0 2.08164,0c0,0 1.04081,0 1.04081,0c0,0 1.04082,0 1.04082,0c1.04082,0 1.04082,0 2.08163,0.80042c0,0 0,0 0,0c0,0 1.04082,0 1.04082,0.80042c0,0 0,0 1.04081,0c0,0 0,0 1.04082,0.80041c0,0 0,0 1.04082,0c0,0 -0.73595,0.23444 0,0.80042c0.73595,0.56599 1.04081,0 1.04081,0c0,0 0,0 1.04082,0c0,0 0,0 0,0l0,0" id="svg_102" stroke-opacity="null" stroke-width="null" fill="#000000"/>
  <ellipse transform="rotate(-15 338.5723876953124,266.65402221679693) " ry="16.5" rx="11" id="svg_103" cy="266.654026" cx="338.572388" stroke-opacity="null" stroke-width="null" stroke="null" fill="#4c4c4c"/>
  <ellipse transform="rotate(-9 342.22570800781233,299.7277221679685) " stroke="null" ry="6.5" rx="33.354414" id="svg_105" cy="299.727713" cx="342.225721" stroke-opacity="null" stroke-width="null" fill="#191919"/>
  <polyline stroke-linecap="round" id="svg_111" points="473.5723876953125,338.1540222167969 474.5723876953125,338.1540222167969 " stroke-opacity="null" stroke-width="null" stroke="null" fill="none"/>
  <text fill="#bf5f00" stroke="#000" stroke-width="0" x="233.572388" y="103.154026" id="svg_1" font-size="24" font-family="Euphoria, sans-serif" text-anchor="start" xml:space="preserve">FEMiner</text>
  <g id="svg_2" stroke="null">
   <path d="m106.32866,392.18322l18.05001,14.42262c4.61853,3.23581 8.23733,7.85472 12.85586,11.09053c5.35587,4.7954 9.19988,8.11004 16.30502,10.48479c4.21779,8.8524 12.19672,16.07316 23.22037,23.54545c17.6722,14.65211 34.52606,28.65035 51.69839,43.99401c8.14067,6.89467 17.3049,16.24361 26.07086,22.2742c12.24107,9.04376 33.96565,5.09412 21.69981,24.40026c-2.60159,4.09468 -9.19833,6.81194 -12.11178,6.6383c-4.82669,-0.28721 -6.61021,0.31644 -11.06481,-13.22206c-6.63174,-7.51662 -26.69657,-21.8056 -37.16881,-30.13761l-57.45555,-47.34431c-18.29054,-13.39902 -16.96115,-8.39361 -22.62359,-13.06599c-3.81307,-3.45054 -7.62603,-6.90098 -11.43903,-10.3515c-5.4366,-2.7985 -10.53295,-6.96162 -16.30995,-8.39568l-16.82249,-13.44181l15.09528,-20.89152l0.00041,0.00032z" fill="#d38d5f" stroke-width="2.4134" id="svg_23" stroke="#000"/>
   <path d="m139.90929,420.58292c-1.04103,7.16199 0.4266,12.74599 -14.84432,15.76186c-2.70337,0.53387 -10.16918,-4.63529 -12.06261,-3.17724c-19.1039,14.7076 -27.93656,22.23289 -35.73642,64.38584c-5.32477,-2.46957 -25.00459,-19.59142 -27.26621,-21.40052c9.39043,-11.66171 38.11596,-40.09623 43.09509,-66.97079c0.61885,-3.34071 0.36505,-8.95008 2.26505,-11.58352c2.56433,-3.5542 7.66828,-4.61951 10.49395,-7.75865c36.67016,-40.78649 63.02799,-57.85039 69.52459,-59.55661c-3.98446,7.66131 -39.49808,34.17674 -48.71585,66.25312c-3.21333,11.18224 8.74019,13.13747 13.24815,24.04666l-0.00142,-0.00015z" fill="url(#cc)" fill-rule="evenodd" stroke-width="2.4134" id="svg_24" stroke="#000"/>
   <path d="m141.48824,418.39447c-1.04103,7.16198 -3.10485,16.82348 -18.37571,19.83939l-31.20152,-25.77811c0.61885,-3.34071 1.54722,-12.22251 3.44722,-14.85595c2.56433,-3.55421 5.79948,-6.11438 8.62516,-9.25352l37.50513,30.04818l-0.00029,0.00001l0.00001,0z" fill="url(#cb)" fill-rule="evenodd" stroke-width="2.4134" id="svg_25" stroke="#000"/>
  </g>
 </g>
</svg>